<svg width="41" height="41" viewBox="0 0 41 41" fill="none" xmlns="http://www.w3.org/2000/svg">
    <path d="M20.5006 22.2081V30.7498M10.2506 37.5831H30.7506M22.2722 4.89757L24.0744 8.53461C24.3204 9.04028 24.9764 9.52544 25.5299 9.6194L28.7997 10.1661C30.8907 10.518 31.3827 12.0469 29.8759 13.5571L27.3339 16.1196C26.9034 16.5535 26.6677 17.3906 26.8009 17.9902L27.5287 21.1609C28.1027 23.6722 26.7804 24.6442 24.5767 23.3305L21.5137 21.5026C20.9602 21.1712 20.0479 21.1712 19.4842 21.5026L16.4194 23.3305C14.2259 24.6442 12.8934 23.6619 13.4674 21.1609L14.1952 17.9885C14.3284 17.3906 14.0927 16.5535 13.6622 16.1196L11.1202 13.5571C9.62366 12.0469 10.1054 10.518 12.1964 10.1661L15.4662 9.6194C16.0094 9.52544 16.6654 9.04028 16.9114 8.53461L18.7154 4.89586C19.6994 2.92273 21.2984 2.92273 22.2722 4.89586M13.6673 35.8748C13.6673 33.4592 13.6673 32.2514 14.4189 31.5014C15.1672 30.7498 16.375 30.7498 18.7923 30.7498H22.2089C24.6245 30.7498 25.8323 30.7498 26.5823 31.5014C27.3339 32.2514 27.3339 33.4592 27.3339 35.8748V37.5831H13.6673V35.8748Z"
          stroke="#006D77FF" stroke-width="2" stroke-linecap="round" stroke-linejoin="round"/>
</svg>
