<svg width="30" height="22" viewBox="0 0 30 22" fill="none" xmlns="http://www.w3.org/2000/svg">
    <path d="M7.8001 0.264404C6.84532 0.264404 5.92964 0.643689 5.25451 1.31882C4.57938 1.99395 4.2001 2.90963 4.2001 3.8644V5.75441C3.18367 5.96188 2.27014 6.51417 1.61412 7.31779C0.958103 8.12142 0.599886 9.12702 0.600098 10.1644V14.6644C0.600098 15.6192 0.979382 16.5349 1.65451 17.21C2.32964 17.8851 3.24532 18.2644 4.2001 18.2644V20.9644C4.2001 21.2031 4.29492 21.432 4.4637 21.6008C4.63248 21.7696 4.8614 21.8644 5.1001 21.8644C5.33879 21.8644 5.56771 21.7696 5.73649 21.6008C5.90528 21.432 6.0001 21.2031 6.0001 20.9644V18.2644H24.0001V20.9644C24.0001 21.2031 24.0949 21.432 24.2637 21.6008C24.4325 21.7696 24.6614 21.8644 24.9001 21.8644C25.1388 21.8644 25.3677 21.7696 25.5365 21.6008C25.7053 21.432 25.8001 21.2031 25.8001 20.9644V18.2644C26.7549 18.2644 27.6705 17.8851 28.3457 17.21C29.0208 16.5349 29.4001 15.6192 29.4001 14.6644V10.1644C29.4003 9.12702 29.0421 8.12142 28.3861 7.31779C27.7301 6.51417 26.8165 5.96188 25.8001 5.75441V3.8644C25.8001 2.90963 25.4208 1.99395 24.7457 1.31882C24.0705 0.643689 23.1549 0.264404 22.2001 0.264404H7.8001ZM24.0001 5.75441C22.2361 6.11261 20.8483 7.5004 20.4901 9.2644H9.5101C9.33373 8.3996 8.90694 7.60576 8.28284 6.98166C7.65875 6.35757 6.8649 5.93078 6.0001 5.75441V3.8644C6.0001 3.38701 6.18974 2.92918 6.52731 2.59161C6.86487 2.25405 7.32271 2.0644 7.8001 2.0644H22.2001C22.6775 2.0644 23.1353 2.25405 23.4729 2.59161C23.8105 2.92918 24.0001 3.38701 24.0001 3.8644V5.75441ZM25.8001 16.4644H4.2001C3.72271 16.4644 3.26487 16.2748 2.92731 15.9372C2.58974 15.5996 2.4001 15.1418 2.4001 14.6644V10.1644C2.4001 9.44832 2.68456 8.76156 3.19091 8.25522C3.69726 7.74887 4.38401 7.4644 5.1001 7.4644C5.81618 7.4644 6.50294 7.74887 7.00929 8.25522C7.51563 8.76156 7.8001 9.44832 7.8001 10.1644C7.8001 10.4031 7.89492 10.632 8.0637 10.8008C8.23248 10.9696 8.4614 11.0644 8.7001 11.0644H21.3001C21.5388 11.0644 21.7677 10.9696 21.9365 10.8008C22.1053 10.632 22.2001 10.4031 22.2001 10.1644C22.2001 9.44832 22.4846 8.76156 22.9909 8.25522C23.4973 7.74887 24.184 7.4644 24.9001 7.4644C25.6162 7.4644 26.3029 7.74887 26.8093 8.25522C27.3156 8.76156 27.6001 9.44832 27.6001 10.1644V14.6644C27.6001 15.1418 27.4105 15.5996 27.0729 15.9372C26.7353 16.2748 26.2775 16.4644 25.8001 16.4644Z"
          fill="#006D77FF"/>
</svg>
