<svg width="18" height="18" viewBox="0 0 18 18" fill="none" xmlns="http://www.w3.org/2000/svg">
<path fill-rule="evenodd" clip-rule="evenodd" d="M13 -0.00732422H5C2.23858 -0.00732422 0 2.23126 0 4.99268V12.9927C0 15.7541 2.23858 17.9927 5 17.9927H13C15.7614 17.9927 18 15.7541 18 12.9927V4.99268C18 2.23126 15.7614 -0.00732422 13 -0.00732422ZM16.25 12.9927C16.2445 14.7853 14.7926 16.2372 13 16.2427H5C3.20735 16.2372 1.75549 14.7853 1.75 12.9927V4.99268C1.75549 3.20003 3.20735 1.74817 5 1.74268H13C14.7926 1.74817 16.2445 3.20003 16.25 4.99268V12.9927ZM13.75 5.24268C14.3023 5.24268 14.75 4.79496 14.75 4.24268C14.75 3.6904 14.3023 3.24268 13.75 3.24268C13.1977 3.24268 12.75 3.6904 12.75 4.24268C12.75 4.79496 13.1977 5.24268 13.75 5.24268ZM9 4.49268C6.51472 4.49268 4.5 6.5074 4.5 8.99268C4.5 11.478 6.51472 13.4927 9 13.4927C11.4853 13.4927 13.5 11.478 13.5 8.99268C13.5027 7.79838 13.0294 6.65225 12.1849 5.80776C11.3404 4.96327 10.1943 4.49002 9 4.49268ZM6.25 8.99268C6.25 10.5115 7.4812 11.7427 9 11.7427C10.5188 11.7427 11.75 10.5115 11.75 8.99268C11.75 7.47388 10.5188 6.24268 9 6.24268C7.4812 6.24268 6.25 7.47388 6.25 8.99268Z" fill="white"/>
</svg>
