<svg width="18" height="18" viewBox="0 0 18 18" fill="none" xmlns="http://www.w3.org/2000/svg">
<path fill-rule="evenodd" clip-rule="evenodd" d="M1.5 -0.00732422C0.67157 -0.00732422 0 0.664246 0 1.49268V16.4927C0 17.3211 0.67157 17.9927 1.5 17.9927H16.5C17.3284 17.9927 18 17.3211 18 16.4927V1.49268C18 0.664246 17.3284 -0.00732422 16.5 -0.00732422H1.5ZM5.52076 3.9954C5.52639 4.95165 4.81061 5.54087 3.96123 5.53665C3.16107 5.53243 2.46357 4.8954 2.46779 3.99681C2.47201 3.15165 3.13998 2.47243 4.00764 2.49212C4.88795 2.51181 5.52639 3.15728 5.52076 3.9954ZM9.2797 6.75444H6.75971H6.7583V15.3143H9.4217V15.1146C9.4217 14.7347 9.4214 14.3547 9.4211 13.9746C9.4203 12.9608 9.4194 11.9459 9.4246 10.9324C9.426 10.6863 9.4372 10.4304 9.5005 10.1955C9.7381 9.31798 10.5271 8.75128 11.4074 8.89058C11.9727 8.97908 12.3467 9.30678 12.5042 9.83978C12.6013 10.173 12.6449 10.5316 12.6491 10.879C12.6605 11.9266 12.6589 12.9742 12.6573 14.0219C12.6567 14.3917 12.6561 14.7617 12.6561 15.1315V15.3129H15.328V15.1076C15.328 14.6556 15.3278 14.2037 15.3275 13.7518C15.327 12.6223 15.3264 11.4928 15.3294 10.3629C15.3308 9.85238 15.276 9.34898 15.1508 8.85538C14.9638 8.12128 14.5771 7.51378 13.9485 7.07508C13.5027 6.76287 13.0133 6.56178 12.4663 6.53928C12.404 6.53669 12.3412 6.5333 12.2781 6.52989C11.9984 6.51477 11.7141 6.49941 11.4467 6.55334C10.6817 6.70662 10.0096 7.05678 9.5019 7.67408C9.4429 7.74488 9.3852 7.81678 9.2991 7.92408L9.2797 7.94838V6.75444ZM2.68164 15.3171H5.33242V6.76001H2.68164V15.3171Z" fill="white"/>
</svg>
