<svg width="41" height="41" viewBox="0 0 41 41" fill="none" xmlns="http://www.w3.org/2000/svg">
    <path d="M20.4967 3.41699C15.358 3.41699 12.0268 6.86612 8.08736 8.12345C6.48495 8.63595 5.68374 8.89049 5.35915 9.25095C5.03457 9.6097 4.94061 10.1376 4.75099 11.1899C2.71807 22.4581 7.15974 32.8755 17.7514 36.9311C18.8874 37.3667 19.4563 37.5837 20.5018 37.5837C21.5473 37.5837 22.1179 37.365 23.2557 36.9294C33.8456 32.8755 38.2822 22.4581 36.2492 11.1899C36.0596 10.1376 35.9639 9.6097 35.6394 9.24924C35.3148 8.88878 34.5153 8.63424 32.9129 8.12345C28.9717 6.86612 25.6354 3.41699 20.4967 3.41699Z"
          stroke="#006D77FF" stroke-width="1.5" stroke-linecap="round" stroke-linejoin="round"/>
    <path d="M15.375 22.2083C15.375 22.2083 17.0833 22.2083 18.7917 25.625C18.7917 25.625 24.219 17.0833 29.0417 15.375"
          stroke="#006D77FF" stroke-width="1.5" stroke-linecap="round" stroke-linejoin="round"/>
</svg>
