<svg width="88" height="99" viewBox="0 0 88 99" fill="none" xmlns="http://www.w3.org/2000/svg">
<g clip-path="url(#clip0_22084_6002)">
<path d="M85.6258 26.0487L85.3591 23.3384H82.6382C73.1287 23.3384 64.1526 20.548 55.9768 15.0472C52.4824 12.6974 49.895 10.3342 48.2945 8.692C47.5609 7.90427 46.8007 7.07649 46.0271 6.1419L44.0265 3.5918L43.9865 3.6452V3.6185C43.7864 3.85882 41.9326 6.20865 41.9326 6.20865C41.1857 7.10319 40.4521 7.90427 39.7319 8.65195C38.1314 10.2942 35.5306 12.6573 32.0362 15.0072C23.8604 20.5079 14.8844 23.2983 5.3748 23.2983H2.65398L2.38723 26.0087C2.34722 26.4092 1.68035 33.8592 3.1608 43.846C3.38753 45.2212 3.60093 46.6097 3.90769 48.0917C4.14777 49.28 4.41451 50.4416 4.68126 51.5497H8.38905V51.5898H4.68126C4.98802 52.8581 5.34813 54.22 5.77493 55.6085C6.17505 56.9036 6.60184 58.1319 7.02864 59.2935H7.05531C8.16232 62.3242 9.45604 65.1948 10.9098 67.8917L12.1502 69.8944C12.0435 69.8944 11.9368 69.8944 11.8301 69.8677H11.5633C10.9765 69.8677 10.4297 70.068 9.96286 70.4552C9.4427 70.8958 9.13594 71.5099 9.06926 72.1908C8.90921 74.514 7.69551 76.6235 5.76159 77.9186C5.20142 78.3057 4.81463 78.8665 4.70794 79.5608C4.5879 80.2283 4.74795 80.8959 5.14807 81.4566C6.52182 83.3525 6.94861 85.7291 6.29508 87.9721C6.10836 88.613 6.18838 89.3072 6.53516 89.8947C6.88193 90.4821 7.42876 90.9094 8.09563 91.0696C10.363 91.6304 12.2169 93.1791 13.1638 95.3153C13.4439 95.9428 13.9507 96.4101 14.5776 96.6505C15.2178 96.8908 15.9113 96.8507 16.5115 96.5436C18.6188 95.5156 21.0195 95.5156 23.1135 96.5436C23.7137 96.8507 24.4072 96.8908 25.0474 96.6505C25.6876 96.4101 26.1944 95.9428 26.4612 95.3153C27.4081 93.1658 29.2487 91.6304 31.5294 91.0696C32.1829 90.9094 32.7164 90.4955 33.0632 89.9347L34.8504 90.7625C36.2642 91.4301 37.7179 92.0576 39.2384 92.6184C39.3584 92.6584 39.4651 92.6985 39.5852 92.7652C39.6519 92.7652 39.6919 92.8053 39.7452 92.832C40.252 93.0189 40.7722 93.1925 41.3057 93.3794C41.3724 93.3794 41.4124 93.4194 41.4657 93.4461C41.5324 93.4728 41.5858 93.4862 41.6525 93.5129C42.4394 93.7799 43.2129 94.0202 43.9598 94.2205V91.3233H43.9865V94.1938C43.9865 94.1938 44.6134 94.0336 44.8801 93.9535H44.9201C45.2002 93.8734 45.5603 93.7666 46.3205 93.5129C46.4006 93.4862 46.4673 93.4728 46.5473 93.4328C46.694 93.3927 46.814 93.326 46.9474 93.2859C47.2675 93.1791 47.6143 93.0589 48.0144 92.8987C48.1744 92.832 48.3345 92.7786 48.4945 92.7118C48.5746 92.6851 48.6546 92.6451 48.7346 92.6317C64.4727 86.7304 75.6761 74.8611 81.4779 57.9984C81.7446 57.224 81.998 56.4229 82.2648 55.5952C82.6916 54.2066 83.0517 52.8581 83.3451 51.5898C83.6252 50.4683 83.8653 49.3334 84.092 48.2386V48.0784C84.1587 47.7713 84.212 47.4776 84.2787 47.1838C84.2787 47.1037 84.3054 47.0236 84.3187 46.9435H84.3854V46.9168C84.5722 45.9021 84.7322 44.9141 84.8923 43.9395V43.8727C86.3727 33.8993 85.7058 26.4626 85.6658 26.0621L85.6258 26.0487Z" fill="white"/>
<path d="M46.1872 2.79075L47.7477 4.76674C48.4413 5.60787 49.1615 6.38225 49.8417 7.12992L49.895 7.18333C51.3621 8.69203 53.8162 10.9484 57.2039 13.2181C65.0196 18.4785 73.5822 21.1355 82.6516 21.1355H87.373L87.8265 25.8351C87.8532 26.1155 88.5601 33.8059 87.0663 44.0196V44.0997L86.9596 44.7272C86.8262 45.5016 86.7062 46.2893 86.5595 47.0904L86.146 49.0931C86.1327 49.1866 86.146 49.1732 86.1193 49.2667V49.3735C86.106 49.3735 85.4925 52.0704 85.4925 52.0704C85.1724 53.4323 84.7856 54.8342 84.3721 56.2094C84.092 57.0772 83.8253 57.905 83.5586 58.6927C77.5701 76.1295 65.7932 88.5729 49.5082 94.6745L49.3482 94.7279C49.2948 94.7413 49.2415 94.768 49.2015 94.7813L48.788 94.9415C48.4012 95.1017 48.0011 95.2486 47.601 95.3688L47.5343 95.3955C47.4676 95.4222 47.4009 95.4489 47.3342 95.4622C47.2142 95.5156 47.0942 95.5557 46.9608 95.5957C46.6407 95.7159 46.374 95.796 46.1606 95.8628L43.9199 96.4636L41.7859 95.8361C41.5325 95.756 41.2524 95.6625 40.9723 95.569L40.7856 95.5023C40.7322 95.4889 40.6656 95.4622 40.6255 95.4355H40.5989C40.1321 95.262 39.6653 95.1017 39.2118 94.9415H39.0784L38.6116 94.7146C38.5983 94.7146 38.5716 94.7012 38.5583 94.6879L38.4782 94.6611C36.9978 94.1004 35.504 93.4729 33.9302 92.7252L33.5301 92.5383C33.0899 92.832 32.5964 93.0456 32.063 93.1792C30.4358 93.5797 29.1554 94.6478 28.4885 96.1832C28.0084 97.3181 27.0614 98.2259 25.8344 98.6799C24.6207 99.1338 23.3003 99.0671 22.1399 98.493C20.6728 97.772 18.9657 97.772 17.4852 98.493C16.845 98.8134 16.1381 98.9736 15.4446 98.9736C14.751 98.9736 14.3509 98.8802 13.8041 98.6799C12.6037 98.2126 11.6701 97.3314 11.1633 96.1965C10.4964 94.6745 9.17602 93.5797 7.5622 93.1792C6.33516 92.8854 5.29484 92.0977 4.64131 90.9895C4.00112 89.8814 3.82773 88.5996 4.1745 87.358C4.62797 85.7692 4.33455 84.0869 3.36092 82.7251C2.60069 81.6703 2.30727 80.4153 2.534 79.1736C2.73407 77.9053 3.42761 76.8104 4.52127 76.0761C5.90836 75.1549 6.76195 73.6729 6.88199 72.0173C7.00203 70.7089 7.58887 69.5607 8.54916 68.7462C8.62919 68.6795 8.70921 68.6261 8.78923 68.5593C7.58887 66.303 6.4952 63.9264 5.53491 61.4564H5.52158L4.97474 60.0145C4.50794 58.7461 4.08114 57.4777 3.68102 56.2361C3.42761 55.3949 3.18754 54.5538 2.9608 53.7127H2.94746L2.78741 53.0584C2.70739 52.7247 2.62737 52.3909 2.54734 52.0704L1.90715 49.3601H1.94716C1.88047 49.0664 1.82712 48.786 1.77377 48.4923C1.48035 47.037 1.25362 45.6618 1.04022 44.3267L1.01354 44.1531C-0.573604 33.7124 0.186627 25.8752 0.186627 25.7951L0.640098 21.1087H5.36153C14.4309 21.1087 22.9935 18.4385 30.7959 13.1914C34.4237 10.7481 36.9578 8.34489 38.1448 7.12992C38.825 6.43566 39.5052 5.67463 40.2121 4.8335C40.6789 4.24604 42.0927 2.45696 42.3061 2.21664L42.4661 2.02972L43.9732 0.0136719L44.0666 0.133834M11.5501 72.0707C11.4967 72.0707 11.4434 72.0707 11.35 72.1508C11.3233 72.1775 11.2566 72.2309 11.2433 72.3912C11.0433 75.3819 9.46944 78.0788 6.96201 79.7477C6.88199 79.8011 6.86865 79.8545 6.86865 79.8812V79.948C6.85531 79.9747 6.84198 80.0548 6.922 80.175C8.68254 82.6183 9.22937 85.6891 8.40245 88.573C8.38911 88.6397 8.40245 88.7065 8.42912 88.7732C8.49581 88.8934 8.57584 88.9201 8.60251 88.9201C11.5634 89.6544 13.9508 91.6571 15.1645 94.4075C15.1778 94.4475 15.2312 94.5276 15.3646 94.581C15.4179 94.5944 15.4579 94.5944 15.5246 94.5677C18.2588 93.2326 21.3664 93.2326 24.0739 94.5677C24.1539 94.6077 24.2072 94.6077 24.2739 94.581C24.4073 94.5276 24.4206 94.4742 24.434 94.4609C25.6744 91.6571 28.0617 89.6544 30.996 88.9334C31.036 88.9334 31.1027 88.9067 31.1827 88.7866L32.2097 87.1043L35.7707 88.7732C37.2379 89.4675 38.5983 90.0416 39.9587 90.5489C40.0787 90.589 40.1988 90.6424 40.3188 90.6825C40.4255 90.7225 40.5055 90.7492 40.5722 90.7893C40.9456 90.9228 41.3458 91.0563 41.7326 91.2032V89.7746L46.1205 88.1457V91.2032C46.1739 91.2032 46.2139 91.1765 46.2539 91.1631C46.534 91.0696 46.8274 90.9762 47.1475 90.8427L47.8411 90.589C47.8944 90.5756 47.9478 90.5489 47.9878 90.5356C62.9657 84.888 73.8223 73.3925 79.3573 57.2641C79.6107 56.5164 79.8641 55.7154 80.1309 54.9143C80.3576 54.1666 80.571 53.4056 80.771 52.6446L81.1578 51.0424C81.3846 50.1345 81.598 49.1732 81.838 47.9983V47.8381L81.8781 47.6245C81.9314 47.3574 81.9847 47.1038 82.0381 46.8501C82.0648 46.6498 82.1048 46.503 82.1181 46.3961L82.2915 45.6752C82.3849 45.1144 82.4782 44.5537 82.5716 44.0063L82.6383 43.539C84.1054 33.6323 83.3985 26.3425 83.3985 26.2624L83.3318 25.528H82.5983C72.6486 25.528 63.2591 22.6174 54.7098 16.863C50.9887 14.3663 48.2945 11.8696 46.6807 10.2274L46.574 10.1073C46.4406 9.9604 46.2939 9.81354 46.1606 9.65332V13.5386C46.1739 13.5386 41.7592 10.7214 41.7592 10.7214V9.66667C41.5992 9.84024 41.4258 10.0138 41.2657 10.1874C39.6653 11.8296 36.9844 14.2996 33.2233 16.8363C24.674 22.5907 15.2845 25.5013 5.33485 25.5013H4.6013L4.53461 26.2223C4.53461 26.3024 3.82773 33.6056 5.29484 43.5256L5.32152 43.6591C5.53491 44.9408 5.74831 46.276 6.0284 47.6512C6.1351 48.1986 6.25513 48.746 6.38851 49.3468H10.2163L10.9366 53.7394L7.48217 53.7794C7.58887 54.18 7.70891 54.5671 7.82894 54.9677C8.09569 55.8088 8.37578 56.6633 8.68254 57.5178L9.06932 58.5191C10.123 61.403 11.3633 64.1801 12.7638 66.7702L16.2182 72.3377L11.9769 72.0841C11.8835 72.0841 11.7901 72.0841 11.6968 72.0707H11.5367H11.5501ZM44.0666 7.21003L43.2397 8.30484H44.7601L44.8535 8.15797C44.6801 7.9577 44.5067 7.75743 44.3333 7.54381L44.0666 7.19668V7.21003ZM44.8535 8.17133L44.7601 8.31819H44.9735C44.9335 8.26478 44.8935 8.22473 44.8535 8.17133Z" fill="white"/>
<path d="M43.9866 3.60547V3.63271C43.9866 3.61909 44.0139 3.60547 44.0139 3.60547H43.9866Z" fill="white"/>
<path d="M42.9729 1.41649L43.293 1.0293L44.7601 1.53665M45.0269 5.80907L41.7859 9.65425L45.0269 5.80907Z" fill="white"/>
<path d="M80.6243 53.767L81.1978 51.07L85.5324 30.8027" fill="white"/>
<path d="M84.3455 46.9035C84.5323 45.8888 84.6923 44.9008 84.8524 43.9261V43.8594C86.3328 33.8859 85.6659 26.4493 85.6259 26.0487L85.3592 23.3384H82.6383C73.1288 23.3384 64.1527 20.548 55.9769 15.0472C52.4825 12.6974 49.8951 10.3342 48.2946 8.692C47.5611 7.90427 46.8008 7.07649 46.0273 6.1419L44.0266 3.5918L43.96 3.6719L44 12.9377C48.8948 17.9311 61.1918 28.265 79.7308 29.253C79.8375 33.4453 79.6508 42.097 77.1033 51.5764H83.3052C83.5853 50.4416 83.8254 49.3067 84.0521 48.1985V48.0383C84.1188 47.7312 84.1721 47.4375 84.2388 47.1438C84.2388 47.0637 84.2655 46.9836 84.2789 46.9035H84.3455Z" fill="#EA4335"/>
<path d="M44.0134 3.60567C44.0134 3.57897 41.9328 6.20918 41.9328 6.20918C41.1859 7.10372 40.4523 7.90479 39.7321 8.65247C38.1316 10.2947 35.5309 12.6579 32.0365 15.0077C23.8606 20.5084 14.8846 23.2989 5.37505 23.2989H2.65422L2.38748 26.0092C2.34746 26.4097 1.68059 33.8598 3.16104 43.8465C3.38778 45.2217 3.60118 46.6103 3.90794 48.0923C4.14801 49.2805 4.41476 50.4421 4.6815 51.5502H10.8834C8.36262 42.0708 8.16256 33.4058 8.25592 29.2268C26.7415 28.2522 39.0786 17.9049 44.0134 12.8848V3.60567Z" fill="#4285F4"/>
<path d="M83.3453 51.5762H77.1434C76.9967 52.0969 76.8634 52.6042 76.7166 53.1383C71.5017 70.989 60.4584 82.6847 43.9734 87.9051V94.1936C43.9734 94.1936 44.6002 94.0334 44.867 93.9532H44.907C45.1871 93.8731 45.5472 93.7663 46.3074 93.5127C46.3875 93.486 46.4541 93.4726 46.5342 93.4325C46.6809 93.3925 46.8009 93.3257 46.9343 93.2857C47.2544 93.1789 47.6012 93.0587 48.0013 92.8985C48.1613 92.8317 48.3214 92.7783 48.4814 92.7116C48.5614 92.6849 48.6415 92.6448 48.7215 92.6315C64.4596 86.7302 75.663 74.8609 81.4647 57.9982C81.7315 57.2238 81.9849 56.4227 82.2517 55.5949C82.6785 54.193 83.0386 52.8445 83.3453 51.5762Z" fill="#FBBC04"/>
<path d="M7.02893 59.2936C8.13593 62.3243 9.42966 65.1948 10.8834 67.8918C11.2435 67.8517 11.617 67.825 11.9904 67.8918C13.6843 68.0787 15.3381 67.4646 16.5385 66.2362C16.6052 66.1695 16.6452 66.1294 16.6985 66.076C14.4979 62.2175 12.6973 57.905 11.3102 53.1519C11.1502 52.6312 11.0035 52.1239 10.8701 51.5898H4.66821C4.97497 52.8582 5.33508 54.2201 5.76188 55.6086C6.162 56.9037 6.58879 58.132 7.01559 59.2936H7.04227H7.02893Z" fill="#34A853"/>
<path d="M35.2374 84.248C34.9306 85.2627 34.9173 86.3309 35.2107 87.3856C35.5308 88.5205 35.4108 89.7087 34.8506 90.7635C36.2643 91.4311 37.7181 92.0586 39.2386 92.6193C39.3586 92.6594 39.4653 92.6994 39.5854 92.7662C39.652 92.7662 39.6921 92.8062 39.7454 92.8329C40.2522 93.0199 40.7724 93.1934 41.3059 93.3803C41.3726 93.3803 41.4126 93.4204 41.4659 93.4471C41.5326 93.4738 41.586 93.4872 41.6526 93.5139C42.4396 93.7809 43.2131 94.0212 43.96 94.2215V87.933C40.8657 86.945 37.9582 85.73 35.2507 84.2881V84.2614L35.2374 84.248Z" fill="#34A853"/>
<path d="M34.8772 79.5347C34.7572 78.8671 34.3971 78.2797 33.8236 77.8925C31.8897 76.584 30.676 74.5012 30.5159 72.1647C30.4759 71.4838 30.1558 70.8697 29.6223 70.4291C29.1021 69.9885 28.4486 69.7882 27.7684 69.8683C25.4477 70.1086 23.1803 69.2809 21.5665 67.5986C21.0997 67.1179 20.4595 66.8242 19.7927 66.8242C19.1258 66.8242 18.4856 67.0912 18.0188 67.5986C16.405 69.2809 14.1376 70.1086 11.8169 69.8683H11.5502C10.9633 69.8683 10.4165 70.0686 9.94967 70.4558C9.42952 70.8964 9.12276 71.5105 9.05607 72.1914C8.89602 74.5146 7.68232 76.6241 5.7484 77.9192C5.18823 78.3063 4.80145 78.8671 4.69475 79.5614C4.57471 80.2289 4.73476 80.8965 5.13488 81.4573C6.50863 83.3531 6.93543 85.7297 6.2819 87.9727C6.09517 88.6136 6.1752 89.3078 6.52197 89.8953C6.86874 90.4827 7.41557 90.91 8.08244 91.0702C10.3498 91.631 12.2037 93.1797 13.1506 95.3159C13.4307 95.9434 13.9375 96.4107 14.5644 96.6511C15.2046 96.8914 15.8981 96.8513 16.4983 96.5442C18.6056 95.5162 21.0064 95.5162 23.1003 96.5442C23.7005 96.8513 24.3941 96.8914 25.0342 96.6511C25.6744 96.4107 26.1813 95.9434 26.448 95.3159C27.395 93.1664 29.2355 91.631 31.5162 91.0702C32.1831 90.91 32.7299 90.4827 33.0767 89.8953C33.4235 89.3078 33.5035 88.6269 33.3168 87.9727C32.6766 85.7297 33.09 83.3398 34.4638 81.4573C34.8639 80.9099 35.0239 80.2423 34.9039 79.5614H34.8372V79.5347H34.8772Z" fill="#FBBC04"/>
<path d="M12.0304 76.7028C10.6167 76.7028 9.74976 77.6507 9.74976 79.1861C9.74976 80.7215 10.6434 81.6695 12.1371 81.6695C13.6309 81.6695 14.2578 80.9218 14.2578 79.1861V78.9191H12.2972V79.8137H13.2041V79.9338C13.0841 80.5613 12.684 80.6815 12.1371 80.6815C11.5903 80.6815 11.0301 80.1341 11.0301 79.1861C11.0301 78.2382 11.4303 77.6908 12.0838 77.6908C12.7373 77.6908 12.7507 77.9178 12.9107 78.2516H14.0977C13.8977 77.1033 12.8707 76.6895 12.0171 76.6895H12.0438L12.0304 76.7028Z" fill="white"/>
<path d="M17.6454 76.7031C16.165 76.7031 15.2581 77.6511 15.2581 79.1865C15.2581 80.7219 16.165 81.6698 17.6454 81.6698C19.1259 81.6698 20.0328 80.7219 20.0328 79.1865C20.0328 77.6511 19.1259 76.7031 17.6454 76.7031ZM17.6454 80.7085C16.9652 80.7085 16.5384 80.1478 16.5384 79.2132C16.5384 78.2786 16.9386 77.7178 17.6454 77.7178C18.3523 77.7178 18.7524 78.2786 18.7524 79.2132C18.7524 80.1478 18.3523 80.7085 17.6454 80.7085Z" fill="white"/>
<path d="M21.1265 76.7695V81.6428H24.4608V80.6281H22.3135V76.7695H21.1265Z" fill="white"/>
<path d="M27.4884 76.7692H25.4878V81.6157H27.4884C29.0089 81.6157 29.8091 80.7612 29.8091 79.1858C29.8091 77.6103 28.9955 76.7559 27.4884 76.7559V76.7692ZM27.3417 80.6277H26.6748V77.7572H27.3417C28.2886 77.7572 28.6087 78.1177 28.6087 79.1991C28.6087 80.2806 28.2886 80.6411 27.3417 80.6411V80.6277Z" fill="white"/>
<path d="M15.1646 83.3398H11.2034V84.3278H12.5771V88.1997H13.7641V84.3278H15.1646V83.3398Z" fill="white"/>
<path d="M17.5386 83.3398H16.3516V88.1864H17.5386V83.3398Z" fill="white"/>
<path d="M22.3534 86.2104V85.3025H20.3928V84.3278H22.7002V83.3398H19.2058V88.1997H22.7802V87.1984H20.3928V86.2104H22.3534Z" fill="white"/>
<path d="M27.1283 88.1994H28.3153C28.2353 87.9724 28.2086 87.7722 28.2086 87.4517V87.0912C28.2086 86.6239 28.0219 86.3169 27.5418 86.0632L27.4217 85.9831L27.5684 85.8629C27.8352 85.6359 28.1286 85.3823 28.1286 84.8082C28.1286 83.8736 27.4484 83.3262 26.248 83.3262H24.0474V88.1727H25.2344V86.4771H26.3014C26.7682 86.4771 26.9816 86.8242 26.9816 87.1179V87.425C26.9816 87.7722 26.9816 87.9457 27.0883 88.1727H27.115V88.1994H27.1283ZM26.128 85.6093H25.2344V84.3542H26.208C26.6348 84.3542 26.8749 84.5812 26.8749 84.9417C26.8749 85.3022 26.7548 85.6093 26.128 85.6093Z" fill="white"/>
<path d="M23.1804 43.4854C22.5402 43.0982 22.0334 42.5909 21.6466 41.95C21.2865 41.3091 21.0864 40.5748 21.0864 39.7604C21.0864 38.9459 21.2731 38.225 21.6466 37.5708C22.0067 36.9299 22.5402 36.3958 23.1804 36.0354C23.8206 35.6749 24.5541 35.4746 25.341 35.4746C26.128 35.4746 26.5147 35.5948 27.0216 35.8217C27.5284 36.0487 27.9685 36.3825 28.3286 36.8097L27.6217 37.4907C27.3016 37.1035 26.9815 36.8498 26.5948 36.6629C26.2347 36.476 25.8079 36.3958 25.3277 36.3958C24.8476 36.3958 24.1807 36.5427 23.6872 36.8231C23.1804 37.1035 22.7936 37.4907 22.5002 37.998C22.1934 38.5054 22.0601 39.0928 22.0601 39.7604C22.0601 40.4279 22.2068 41.0154 22.5002 41.5228C22.8069 42.0301 23.1804 42.4306 23.6872 42.6977C24.194 42.978 24.7409 43.1249 25.3277 43.1249C26.3147 43.1249 27.1683 42.7244 27.8485 41.8966L28.5554 42.5775C28.1686 43.0181 27.7018 43.3919 27.1416 43.6456C26.5814 43.9126 25.9679 44.0462 25.301 44.0462C24.6342 44.0462 23.7806 43.8592 23.1404 43.4854H23.1804Z" fill="#5F6368"/>
<path d="M30.7826 43.6451C30.3425 43.378 29.9957 43.0176 29.7556 42.5369C29.5155 42.0696 29.3955 41.5489 29.3955 40.9348C29.3955 40.3206 29.5155 39.8399 29.7423 39.3726C29.969 38.9054 30.3024 38.5182 30.7292 38.2378C31.156 37.9574 31.6629 37.8105 32.223 37.8105C32.7832 37.8105 33.29 37.9307 33.7168 38.1977C34.1436 38.4648 34.4637 38.7985 34.6904 39.2525C34.9172 39.7064 35.0372 40.2271 35.0372 40.8146C35.0372 41.4021 35.0372 41.0416 34.9972 41.1217H30.3691C30.3958 41.5623 30.4892 41.9495 30.6892 42.2565C30.876 42.5636 31.116 42.7772 31.4228 42.9375C31.7296 43.0977 32.023 43.1644 32.3564 43.1644C33.1033 43.1644 33.6901 42.8173 34.0903 42.1097L34.9172 42.5102C34.6771 42.9909 34.3303 43.3647 33.8902 43.6451C33.4501 43.9254 32.9432 44.0456 32.3297 44.0456C31.7162 44.0456 31.2761 43.8987 30.8359 43.6451H30.7959H30.7826ZM33.9702 40.3072C33.9702 40.0669 33.8902 39.8266 33.7702 39.5729C33.6501 39.3326 33.4501 39.1323 33.1833 38.9454C32.9166 38.7852 32.5965 38.7051 32.1964 38.7051C31.7962 38.7051 31.3428 38.8519 31.0227 39.1457C30.7026 39.4528 30.5025 39.8266 30.3958 40.3206H33.9702V40.2939V40.3072Z" fill="#5F6368"/>
<path d="M36.251 37.9974H37.1846V38.932H37.2246C37.3713 38.5848 37.5847 38.3311 37.9315 38.1175C38.2516 37.9306 38.6117 37.8371 38.9985 37.8371C39.3853 37.8371 39.3052 37.8371 39.4253 37.8772V38.8652C39.3052 38.8385 39.1185 38.8251 38.9051 38.8251C38.3983 38.8251 38.0115 38.9854 37.6914 39.3058C37.3847 39.6262 37.2246 40.0535 37.2246 40.6009V43.8586H36.251V38.0107V37.984V37.9974ZM42.1728 43.8452C41.9727 43.7651 41.8127 43.6583 41.666 43.5382C41.5059 43.3913 41.3992 43.2177 41.3192 43.0308C41.2392 42.8439 41.1991 42.6036 41.1991 42.3232V38.8919H40.1722V37.9974H41.1991V36.3418H42.1728V37.9974H43.5865V38.8919H42.1728V42.0829C42.1728 42.4033 42.2395 42.6436 42.3595 42.7905C42.5062 42.9507 42.7196 43.0308 42.9864 43.0308C43.2531 43.0308 43.4265 42.964 43.6265 42.8305V43.7785C43.5065 43.8452 43.3998 43.8586 43.2798 43.8986C43.1597 43.9253 43.013 43.9387 42.8396 43.9387C42.6663 43.9387 42.3728 43.8986 42.1728 43.8185V43.8452Z" fill="#5F6368"/>
<path d="M45.0404 36.7299C44.8937 36.5831 44.8403 36.4228 44.8403 36.2493C44.8403 36.0757 44.907 35.8888 45.0404 35.7686C45.1871 35.6218 45.3471 35.5684 45.5205 35.5684C45.6939 35.5684 45.8806 35.6351 46.0007 35.7686C46.1474 35.9155 46.2007 36.0757 46.2007 36.2493C46.2007 36.4228 46.1341 36.6098 46.0007 36.7299C45.854 36.8768 45.6939 36.9302 45.4939 36.9302C45.2938 36.9302 45.1338 36.8634 45.0137 36.7299H45.0404ZM45.0404 37.9983H46.014V43.8462H45.0404V37.9983Z" fill="#5F6368"/>
<path d="M48.3346 38.8922H47.2676V37.9977H48.3346V37.3701C48.3346 37.0097 48.4146 36.6892 48.5746 36.3955C48.7347 36.1151 48.9614 35.9148 49.2548 35.768C49.5349 35.6211 49.8417 35.541 50.1885 35.541C50.5352 35.541 50.7886 35.5811 51.0421 35.6879V36.6358C50.8953 36.5691 50.7753 36.529 50.6553 36.5157C50.5352 36.4756 50.3885 36.4489 50.2151 36.4489C50.0418 36.4489 49.7483 36.529 49.5749 36.7159C49.3882 36.9028 49.2949 37.1432 49.2949 37.4636V37.9843H52.9093V43.8322H51.9357V38.8521H49.2682V43.8322H48.2946V38.8521H48.3346V38.8788V38.8922ZM51.949 36.796C51.8023 36.6492 51.7489 36.489 51.7489 36.3154C51.7489 36.1418 51.8156 35.9549 51.949 35.8347C52.0957 35.7146 52.2558 35.6345 52.4291 35.6345C52.6025 35.6345 52.7893 35.7012 52.9093 35.8347C53.0293 35.9816 53.1094 36.1418 53.1094 36.3154C53.1094 36.489 53.0427 36.6759 52.9093 36.796C52.7626 36.9429 52.6025 36.9963 52.4025 36.9963C52.2024 36.9963 52.0424 36.9296 51.9223 36.796H51.949Z" fill="#5F6368"/>
<path d="M55.6303 43.6451C55.1901 43.378 54.8433 43.0176 54.6033 42.5369C54.3632 42.0696 54.2432 41.5489 54.2432 40.9348C54.2432 40.3206 54.3632 39.8399 54.5899 39.3726C54.8167 38.9054 55.1501 38.5182 55.5769 38.2378C56.0037 37.9574 56.5105 37.8105 57.0707 37.8105C57.6309 37.8105 58.1377 37.9307 58.5645 38.1977C58.9913 38.4648 59.3114 38.7985 59.5381 39.2525C59.7648 39.6931 59.8849 40.2271 59.8849 40.8146C59.8849 41.4021 59.8849 41.0416 59.8449 41.1217H55.2168C55.2435 41.5623 55.3368 41.9495 55.5369 42.2565C55.7236 42.5636 55.9637 42.7772 56.2704 42.9375C56.5772 43.0977 56.8706 43.1644 57.2041 43.1644C57.951 43.1644 58.5378 42.8173 58.9379 42.1097L59.7648 42.5102C59.5248 42.9909 59.178 43.3647 58.7379 43.6451C58.3111 43.9254 57.7909 44.0456 57.1774 44.0456C56.5639 44.0456 56.1237 43.8987 55.6836 43.6451H55.6436H55.6303ZM58.8179 40.3072C58.8179 40.0669 58.7379 39.8266 58.6178 39.5729C58.4978 39.3326 58.2977 39.1323 58.031 38.9454C57.7642 38.7585 57.4441 38.7051 57.044 38.7051C56.6439 38.7051 56.1904 38.8519 55.8703 39.1457C55.5502 39.4528 55.3502 39.8266 55.2435 40.3206H58.8179V40.2939V40.3072Z" fill="#5F6368"/>
<path d="M62.2055 43.6456C61.7787 43.3785 61.432 43.018 61.1919 42.5374C60.9518 42.0701 60.8318 41.5227 60.8318 40.9352C60.8318 40.3478 60.9518 39.8271 61.1919 39.3331C61.432 38.8658 61.7787 38.4786 62.2055 38.2249C62.6323 37.9579 63.0991 37.8244 63.6193 37.8244C64.1395 37.8244 64.4729 37.9312 64.833 38.1315C65.1798 38.3317 65.4599 38.5721 65.6466 38.8791H65.6866L65.6466 38.0647V35.6348H66.6202V43.8458H65.6866V42.9913H65.6466C65.4599 43.2717 65.2064 43.5387 64.833 43.739C64.4862 43.9393 64.0861 44.0461 63.6193 44.0461C63.1525 44.0461 62.6323 43.8992 62.2055 43.6456ZM64.6996 42.8979C65.0064 42.711 65.2198 42.4573 65.4065 42.1102C65.5932 41.763 65.6733 41.3758 65.6733 40.9352C65.6733 40.4946 65.5932 40.1075 65.4065 39.7603C65.2198 39.4132 64.9797 39.1729 64.6996 38.9726C64.4195 38.7723 64.0994 38.6922 63.7527 38.6922C63.4059 38.6922 63.1125 38.7723 62.8057 38.9726C62.499 39.1595 62.2589 39.4132 62.0988 39.7603C61.9121 40.1075 61.8321 40.4946 61.8321 40.9352C61.8321 41.3758 61.9121 41.763 62.0988 42.1102C62.2856 42.4573 62.5256 42.711 62.8057 42.8979C63.1125 43.0848 63.4059 43.1783 63.7527 43.1783C64.0994 43.1783 64.4195 43.0982 64.6996 42.8979Z" fill="#5F6368"/>
<path d="M32.5566 55.7413C31.9164 55.3541 31.4096 54.8467 31.0228 54.2059C30.6627 53.565 30.4626 52.8307 30.4626 52.0162C30.4626 51.2018 30.6494 50.4808 31.0228 49.8266C31.3829 49.1858 31.9164 48.6517 32.5566 48.2912C33.1968 47.9307 33.9304 47.7305 34.7173 47.7305C35.5042 47.7305 35.891 47.8506 36.3978 48.0776C36.9046 48.3046 37.3447 48.6384 37.7315 49.0656L37.0246 49.7465C36.7045 49.3593 36.3844 49.1057 35.9977 48.9187C35.6375 48.7318 35.2108 48.6517 34.7306 48.6517C34.2505 48.6517 33.5969 48.7986 33.0901 49.079C32.5833 49.3593 32.1965 49.7465 31.9031 50.2539C31.5963 50.7612 31.4629 51.3487 31.4629 52.0162C31.4629 52.6838 31.6097 53.2713 31.9031 53.7786C32.2098 54.286 32.5833 54.6865 33.0901 54.9535C33.5969 55.2339 34.1438 55.3808 34.7306 55.3808C35.7176 55.3808 36.5712 54.9802 37.2514 54.1525L37.9583 54.8334C37.5715 55.274 37.1047 55.6478 36.5445 55.9015C35.9843 56.1685 35.3708 56.302 34.7039 56.302C34.0371 56.302 33.1835 56.1151 32.5433 55.7413H32.57H32.5566Z" fill="#5F6368"/>
<path d="M39.4652 47.918H40.879L43.4798 54.647H43.5198L46.1206 47.918H47.5343V56.129H46.5607V50.9087L46.6007 49.3466H46.5607L43.8799 56.1157H43.0663L40.3855 49.3466H40.3455L40.3855 50.9087V56.129H39.4119V47.918H39.4519H39.4652Z" fill="#5F6368"/>
<path d="M49.5085 47.918H52.2693C52.7361 47.918 53.1629 48.0248 53.5363 48.2251C53.9231 48.4253 54.2432 48.7057 54.47 49.0929C54.6967 49.4534 54.8167 49.8806 54.8167 50.3479C54.8167 50.8152 54.6967 51.2424 54.47 51.6029C54.2432 51.9634 53.9231 52.2705 53.5363 52.4708C53.1496 52.671 52.7228 52.7778 52.2693 52.7778H50.4687V56.129H49.4951V47.918H49.5085ZM52.296 51.8566C52.6027 51.8566 52.8561 51.7765 53.1095 51.6296C53.3363 51.4828 53.5363 51.3092 53.6564 51.0689C53.7764 50.8286 53.8564 50.6016 53.8564 50.3346C53.8564 50.0675 53.7897 49.8539 53.6564 49.6002C53.523 49.3466 53.3496 49.173 53.1095 49.0395C52.8828 48.8926 52.6027 48.8125 52.296 48.8125H50.4821V51.8299H52.296V51.8566Z" fill="#5F6368"/>
<path d="M25.4611 60.1621H28.2219C28.6887 60.1621 29.1155 60.2689 29.489 60.4692C29.8758 60.6695 30.1959 60.9765 30.4226 61.337C30.6493 61.6975 30.7694 62.1248 30.7694 62.592C30.7694 63.0593 30.6493 63.4866 30.4226 63.8471C30.1959 64.2076 29.8758 64.5146 29.489 64.7149C29.1022 64.9152 28.6754 65.022 28.2219 65.022H26.4214V68.3732H25.4478V60.1621H25.4611ZM28.2486 64.1141C28.5554 64.1141 28.8088 64.034 29.0622 63.8871C29.2889 63.7403 29.489 63.5667 29.609 63.3264C29.7291 63.086 29.8091 62.8591 29.8091 62.592C29.8091 62.325 29.7424 62.1114 29.609 61.8577C29.4623 61.6174 29.3023 61.4305 29.0622 61.297C28.8354 61.1501 28.5554 61.07 28.2486 61.07H26.4347V64.0874H28.2486V64.1141Z" fill="#5F6368"/>
<path d="M32.4767 68.319C32.1299 68.1587 31.8898 67.9184 31.6898 67.638C31.503 67.331 31.4097 67.0105 31.4097 66.6233C31.4097 65.9958 31.6364 65.5152 32.1165 65.1681C32.5834 64.8209 33.1702 64.6474 33.8771 64.6474C34.584 64.6474 34.5573 64.6874 34.864 64.7675C35.1708 64.8476 35.3842 64.9277 35.5443 65.0345V64.6741C35.5443 64.2335 35.3842 63.8863 35.0774 63.6193C34.7707 63.3523 34.3972 63.2188 33.9304 63.2188C33.4636 63.2188 33.3036 63.2989 33.0235 63.419C32.7434 63.5659 32.5433 63.7662 32.3833 64.0065L31.6497 63.4591C31.8765 63.1119 32.1966 62.8316 32.5967 62.6313C32.9968 62.431 33.4503 62.3242 33.9304 62.3242C34.7173 62.3242 35.3442 62.5245 35.811 62.9517C36.2778 63.379 36.4912 63.9397 36.4912 64.6474V68.3457H35.5576V67.5179H35.5176C35.3575 67.7983 35.0908 68.0386 34.7707 68.2522C34.4506 68.4525 34.0638 68.5593 33.637 68.5593C33.2102 68.5593 32.8234 68.4792 32.49 68.319L32.4633 68.3457L32.4767 68.319ZM34.6373 67.4645C34.9174 67.3043 35.1441 67.0639 35.3175 66.7836C35.4776 66.5032 35.5576 66.1961 35.5576 65.849C35.3709 65.7288 35.1575 65.622 34.8774 65.5419C34.6106 65.4618 34.3306 65.4217 34.0238 65.4217C33.5036 65.4217 33.0902 65.5285 32.8101 65.7422C32.53 65.9691 32.41 66.2495 32.41 66.5966C32.41 66.9438 32.53 67.1841 32.7701 67.3844C33.0102 67.5846 33.3169 67.6914 33.7037 67.6914C34.0905 67.6914 34.3306 67.6113 34.6106 67.4511L34.6373 67.4778V67.4645Z" fill="#5F6368"/>
<path d="M37.9714 62.5377H38.9051V63.4723H38.9451C39.0918 63.1252 39.3052 62.8715 39.6519 62.6579C39.972 62.471 40.3321 62.3775 40.7189 62.3775C41.1057 62.3775 41.0257 62.3775 41.1457 62.4176V63.4056C41.0257 63.3789 40.839 63.3655 40.6256 63.3655C40.1188 63.3655 39.732 63.5257 39.4119 63.8462C39.1051 64.1666 38.9451 64.5938 38.9451 65.1412V68.3723H37.9714V62.5244V62.5377ZM43.8932 68.3589C43.6932 68.2788 43.5331 68.172 43.3864 68.0518C43.2264 67.905 43.1197 67.7447 43.0396 67.5445C42.9596 67.3576 42.9196 67.1172 42.9196 66.8369V63.4056H41.8926V62.511H42.9196V60.8555H43.8932V62.511H45.307V63.4056H43.8932V66.5965C43.8932 66.917 43.9599 67.1573 44.08 67.3042C44.2267 67.4644 44.4401 67.5445 44.7068 67.5445C44.9736 67.5445 45.1469 67.4777 45.347 67.3442V68.2922C45.227 68.3589 45.1203 68.399 45.0002 68.4123C44.8802 68.4257 44.7335 68.4524 44.5601 68.4524C44.3867 68.4524 44.0933 68.4123 43.8932 68.3322V68.3589Z" fill="#5F6368"/>
<path d="M46.6808 62.5382H47.6144V63.3926H47.6544C47.8145 63.1123 48.0812 62.8452 48.428 62.645C48.7748 62.4447 49.1616 62.3379 49.5617 62.3379C50.2686 62.3379 50.7887 62.5382 51.1755 62.9387C51.5356 63.3392 51.7357 63.9133 51.7357 64.5943V68.3326H50.7621V64.7278C50.7621 64.1804 50.642 63.7932 50.3753 63.5529C50.1085 63.3125 49.7751 63.1924 49.3083 63.1924C48.8415 63.1924 48.7214 63.2725 48.4547 63.4594C48.2146 63.6463 48.0146 63.8599 47.8678 64.1403C47.7211 64.4207 47.6678 64.7278 47.6678 65.0482V68.346H46.6942V62.4981H46.6675V62.5248L46.6808 62.5382Z" fill="#5F6368"/>
<path d="M54.3099 68.1724C53.8698 67.9054 53.523 67.5449 53.283 67.0643C53.0429 66.597 52.9229 66.0763 52.9229 65.4621C52.9229 64.8479 53.0429 64.3673 53.2696 63.9C53.4964 63.4327 53.8298 63.0455 54.2566 62.7651C54.6834 62.4848 55.1902 62.3379 55.7504 62.3379C56.3105 62.3379 56.8174 62.4581 57.2442 62.7251C57.671 62.9921 57.9911 63.3259 58.2178 63.7798C58.4445 64.2204 58.5646 64.7545 58.5646 65.3419C58.5646 65.9294 58.5646 65.5689 58.5245 65.649H53.8965C53.9232 66.0896 54.0165 66.4634 54.2166 66.7839C54.4033 67.091 54.6434 67.3046 54.9501 67.4648C55.2569 67.625 55.5503 67.6918 55.8838 67.6918C56.6306 67.6918 57.2175 67.3446 57.6176 66.637L58.4445 67.0376C58.2045 67.5182 57.8577 67.892 57.4175 68.1724C56.9908 68.4528 56.4706 68.573 55.8571 68.573C55.2436 68.573 54.8034 68.4261 54.3633 68.1724H54.3233H54.3099ZM57.4976 64.8346C57.4976 64.5943 57.4175 64.3539 57.2975 64.1003C57.1775 63.8599 56.9774 63.6597 56.7107 63.4728C56.4439 63.2858 56.1238 63.2324 55.7237 63.2324C55.3236 63.2324 54.8701 63.3793 54.55 63.673C54.2299 63.9801 54.0299 64.3539 53.9232 64.8479H57.4976V64.8212V64.8346Z" fill="#5F6368"/>
<path d="M59.7915 62.5368H60.7251V63.4714H60.7651C60.8852 63.151 61.1119 62.884 61.432 62.6837C61.7521 62.4834 62.0989 62.3633 62.459 62.3633C62.8191 62.3633 62.9658 62.4033 63.1392 62.4834V63.5382C62.8991 63.418 62.619 63.3513 62.3123 63.3513C62.0055 63.3513 61.7654 63.4314 61.5254 63.5916C61.2853 63.7518 61.0986 63.9788 60.9652 64.2325C60.8185 64.4995 60.7651 64.7932 60.7651 65.1003V68.3714H59.7915V62.5235V62.5368Z" fill="#5F6368"/>
</g>
<defs>
<clipPath id="clip0_22084_6002">
<rect width="88" height="99" fill="white"/>
</clipPath>
</defs>
</svg>
