<svg width="41" height="41" viewBox="0 0 41 41" fill="none" xmlns="http://www.w3.org/2000/svg">
    <path d="M20.5007 17.8906L18.4213 24.2898H11.6921L17.1362 28.245L15.0554 34.6436L20.5007 30.6897L25.9448 34.6436L23.864 28.245L29.308 24.2898H22.5789L20.5007 17.8906ZM22.3188 27.5769L23.4412 31.0337L20.5007 28.8966L17.5577 31.0337L18.6826 27.5769L15.7409 25.4397H19.3771L20.5007 21.9829L21.6244 25.4397H25.2593L22.3188 27.5769Z"
          fill="#006D77FF"/>
    <path d="M28.6084 16.9887V11.4166C28.6084 11.1834 28.4809 10.9874 28.3002 10.8656L34.5938 1.28125H22.5276L20.5006 4.32166L18.4737 1.28125H6.40625L12.6991 10.865C12.6062 10.9243 12.5295 11.0058 12.4759 11.102C12.4222 11.1983 12.3932 11.3064 12.3916 11.4166V16.9887C9.52097 19.3385 7.6875 22.9075 7.6875 26.9062C7.6875 33.982 13.4243 39.7188 20.5 39.7188C20.9365 39.7188 21.3678 39.697 21.7928 39.6534C28.2612 39.0057 33.3125 33.5463 33.3125 26.9062C33.3125 22.9075 31.479 19.3385 28.6084 16.9887ZM26.1542 1.92188H30.208L24.5545 10.4031L22.5276 7.3627L26.1542 1.92188ZM26.5815 13.4435L27.2048 12.5095C27.2381 12.5896 27.2573 12.6767 27.2573 12.7683V15.4711C27.2554 15.6398 27.187 15.8009 27.067 15.9195C25.1452 14.7677 22.9036 14.0938 20.5 14.0938C18.1857 14.0942 15.9152 14.7257 13.933 15.9202C13.8128 15.8014 13.7444 15.64 13.7427 15.4711V12.7683C13.7435 12.676 13.7611 12.5898 13.7952 12.5095L14.4185 13.4442L26.5815 13.4435ZM10.792 1.92188H14.8458L22.1003 12.8029H18.0464L10.792 1.92188ZM20.5 37.7969C14.4858 37.7969 9.60938 32.9211 9.60938 26.9062C9.60938 20.8914 14.4858 16.0156 20.5 16.0156C26.5142 16.0156 31.3906 20.8914 31.3906 26.9062C31.3906 32.9211 26.5142 37.7969 20.5 37.7969Z"
          fill="#006D77FF"/>
</svg>
