<svg width="41" height="41" viewBox="0 0 41 41" fill="none" xmlns="http://www.w3.org/2000/svg">
    <path d="M6.71315 23.5424C5.78929 25.177 4.10282 28.1618 7.08762 30.1516C8.02515 30.7721 9.07749 31.2012 10.179 31.4144C11.0182 31.5374 11.0619 32.8303 10.0752 32.8002C9.02282 32.7456 3.89782 32.2727 3.07509 28.4269C2.64869 26.1856 3.12975 24.1711 4.45269 21.9899L6.35782 18.6197L2.78809 16.5888L12.3001 10.9336V21.8669L8.73035 19.97L6.71315 23.5424ZM18.3134 5.55982C21.4704 3.84329 23.2963 6.73516 24.3022 8.31229L26.5052 11.7645L23.0448 13.973L32.8001 19.0953L32.2616 8.09089L28.8067 10.2967L26.7294 7.04676C25.3026 5.00769 24.2584 3.50162 21.7137 2.82376C17.2392 1.96822 14.4895 7.15882 14.5168 7.12602C14.0686 7.91049 15.1072 8.60202 15.7496 7.70002C16.4548 6.82536 17.3267 6.09829 18.3134 5.55982ZM36.337 22.471C36.0965 21.9516 34.8364 22.0856 35.1918 23.2008C35.5498 24.2668 35.6974 25.3874 35.6209 26.5081C35.3667 30.0942 31.9364 30.0669 30.0668 30.0669H25.9668V25.9669L16.4001 31.4336L25.934 36.9686L25.9476 32.8002H30.0668C32.4994 32.8412 34.4401 32.3192 36.0801 30.8514C39.3601 27.9513 36.337 22.471 36.337 22.471Z"
          fill="#006D77FF"/>
</svg>
