<svg width="36" height="36" viewBox="0 0 36 36" fill="none" xmlns="http://www.w3.org/2000/svg">
    <path d="M29.25 26.25C29.25 28.321 27.571 30 25.5 30C23.429 30 21.75 28.321 21.75 26.25C21.75 24.179 23.429 22.5 25.5 22.5C27.571 22.5 29.25 24.179 29.25 26.25Z"
          stroke="#006D77FF" stroke-width="1.5"/>
    <path d="M14.25 26.25C14.25 28.321 12.5711 30 10.5 30C8.42893 30 6.75 28.321 6.75 26.25C6.75 24.179 8.42893 22.5 10.5 22.5C12.5711 22.5 14.25 24.179 14.25 26.25Z"
          stroke="#006D77FF" stroke-width="1.5"/>
    <path d="M21.75 26.25H14.25M29.25 26.25H30.3948C30.7247 26.25 30.8896 26.25 31.0282 26.2328C32.0503 26.1054 32.8554 25.3003 32.9828 24.2782C33 24.1396 33 23.9746 33 23.6448V19.5C33 14.1152 28.6349 9.75 23.25 9.75M3 6H18C20.1213 6 21.182 6 21.8411 6.65901C22.5 7.31802 22.5 8.37869 22.5 10.5V23.25M3 19.125V22.5C3 23.9019 3 24.6028 3.30144 25.125C3.49891 25.467 3.78296 25.7511 4.125 25.9485C4.64712 26.25 5.34807 26.25 6.75 26.25"
          stroke="#006D77FF" stroke-width="1.5" stroke-linecap="round" stroke-linejoin="round"/>
    <path d="M3 10.5H12M3 15H9" stroke="#006D77FF" stroke-width="1.5" stroke-linecap="round" stroke-linejoin="round"/>
</svg>
